<?xml version="1.0" encoding="UTF-8"?>
<svg width="1200pt" height="1200pt" version="1.1" viewBox="0 0 1200 1200" xmlns="http://www.w3.org/2000/svg">
 <g fill="#12b0fb">
  <path d="m885.12 374.4c2.4922 0.375 4.9883-0.625 6.5312-2.6172 1.543-1.9922 1.8906-4.6602 0.90625-6.9805l-64.559-187.44c-1.2656-2.7891-3.3086-5.1523-5.8828-6.8125-2.5742-1.6602-5.5742-2.543-8.6367-2.5469h-434.76c-3.043 0.085938-6 1.0508-8.5117 2.7734-2.5117 1.7266-4.4727 4.1367-5.6484 6.9453l-64.559 187.08c-0.90234 2.3164-0.52344 4.9414 1 6.9062 1.5234 1.9688 3.9688 2.9883 6.4414 2.6914z"/>
  <path d="m831.12 670.92c0 129.76-105.2 234.96-234.96 234.96s-234.96-105.2-234.96-234.96c0-129.77 105.2-234.96 234.96-234.96s234.96 105.2 234.96 234.96"/>
  <path d="m1114.9 352.8h-1037.5c-5.7383 0-11.246 2.2695-15.316 6.3203-4.0664 4.0469-6.3711 9.5391-6.4023 15.277v636c0.03125 5.7422 2.3359 11.234 6.4023 15.281 4.0703 4.0469 9.5781 6.3203 15.316 6.3203h1037.5c5.7383-0.03125 11.23-2.3359 15.277-6.4023 4.0508-4.0703 6.3203-9.5781 6.3203-15.316v-636c-0.0625-5.6992-2.3633-11.145-6.4023-15.164-4.0391-4.0156-9.5-6.2852-15.195-6.3164zm-518.76 607.2c-57.207 0.023438-113.14-16.922-160.71-48.688-47.578-31.77-84.664-76.938-106.57-129.79-21.906-52.848-27.645-111.01-16.488-167.12s38.703-107.65 79.152-148.11c40.453-40.453 91.996-68 148.11-79.152 56.113-11.156 114.27-5.418 167.12 16.484 52.852 21.902 98.016 58.988 129.79 106.57s48.715 103.51 48.688 160.72c-0.09375 76.637-30.582 150.11-84.773 204.3-54.191 54.191-127.66 84.68-204.3 84.773z"/>
 </g>
</svg>
