<?xml version="1.0" encoding="UTF-8"?>
<svg width="1200pt" height="1200pt" version="1.1" viewBox="0 0 1200 1200" xmlns="http://www.w3.org/2000/svg">
 <g fill="#fff">
  <path d="m36.363 662.18h1127.3c2 0 3.8164-0.54688 5.4531-1.0898 0.54688-0.18359 0.91016-0.36328 1.2734-0.54688 1.4531-0.72656 2.9102-1.6367 4.1836-2.9102l0.18359-0.18359c1.0898-1.0898 1.8164-2.1836 2.5469-3.4531 0.18359-0.36328 0.18359-0.72656 0.36328-0.91016 0.18359-0.36328 0.36328-0.91016 0.54688-1.2734 0.54688-1.6367 0.91016-3.2734 0.91016-4.9102 0-0.18359 0.18359-0.36328 0.18359-0.54688v-0.18359c0-1.8164-0.36328-3.6367-1.0898-5.4531-0.18359-0.54688-0.36328-0.91016-0.54688-1.4531-0.18359-0.54688-0.36328-0.91016-0.72656-1.4531l-105.82-170.73c-4.5469-7.4531-14.363-9.8164-21.816-5.0898-7.4531 4.5469-9.8164 14.363-5.0898 21.816l90.727 146.36-282.92 0.003906-304.91-491.09h283.09l179.27 288.91c4.5469 7.4531 14.363 9.8164 21.816 5.0898 7.4531-4.7266 9.8164-14.363 5.0898-22l-183.63-296.36c-2.9102-4.7266-8-7.4531-13.453-7.4531h-320.73c-1.4531 0-2.7266 0.18359-4.1836 0.54687-0.54688 0.18359-0.91016 0.36328-1.2734 0.54688-0.91016 0.36328-1.6367 0.54687-2.3633 1.0898-0.54687 0.36328-0.91016 0.72656-1.4531 1.0898-0.54688 0.54688-1.2734 0.91016-1.8164 1.4531-0.36328 0.36328-0.72656 0.91016-1.0898 1.4531-0.36328 0.54688-0.91016 0.91016-1.2734 1.4531l-320 515.46h-148.73c-8.7266 0-16 7.0898-16 16 0 8.9102 7.2734 15.82 16 15.82zm482.18-508.91 296 477.09h-105.64l-176.91-284.91c-5.8164-9.2734-21.273-9.2734-27.09 0l-97.453 157.09c-4.5469 7.4531-2.3633 17.273 5.0898 22 7.4531 4.7266 17.273 2.3633 21.816-5.0898l83.816-135.27 152.73 246.36h-305.45l32.91-53.09c4.5469-7.4531 2.3633-17.273-5.0898-21.816-7.4531-4.5469-17.273-2.3633-21.816 5.0898l-43.273 70h-105.82z"/>
  <path d="m1163.6 1140.2h-1127.3c-8.7266 0-16 7.0898-16 16 0 8.9062 7.2734 15.816 16 15.816h1127.3c8.7266 0 16-7.0898 16-16s-7.2734-15.816-16-15.816z"/>
  <path d="m381.27 1059.5c0 16.547 6.3633 32 18 43.453 12 12 27.816 18 43.453 18 15.816 0 31.453-6 43.453-18l56-56c9.0898-9.0898 14.727-20.547 16.91-32.363h278.18c63.816 0 115.82-52 115.82-115.82 0-48.547-30.727-92.363-76.363-108.91-4-1.4531-8.3633-1.2734-12.363 0.54688-3.8164 1.8164-6.7266 5.0898-8.1836 9.2734-11.637 34-43.637 56.91-79.453 56.91h-108.91l44.727-44.727c9.2734 5.2734 19.453 8 29.816 8 15.637 0 31.453-6 43.273-17.816l29.453-29.453c6.1836-6.1836 6.1836-16.363 0-22.547l-64.184-64.184c-6.1836-6.1836-16.363-6.1836-22.547 0l-29.453 29.453c-20.184 20.184-23.09 50.727-9.2734 74.184l-66.91 66.91-199.63-0.003907c-36 0-67.816-22.91-79.453-56.91-1.4531-4-4.3633-7.4531-8.1836-9.2734-3.8164-1.8164-8.3633-2-12.363-0.54688-45.637 16.547-76.363 60.363-76.363 108.91 0 63.816 52 115.82 115.82 115.82h38l-1.2734 1.2734c-11.453 11.82-17.996 27.277-17.996 43.82zm340.54-321.45 18.184-18.184 41.637 41.637-18.184 18.184c-11.453 11.453-30.184 11.453-41.637 0s-11.453-30.184 0-41.637zm-202.18 286.55-56 56c-11.637 11.637-30.363 11.637-42 0-5.6367-5.6367-8.7266-13.09-8.7266-20.91 0-8 3.0898-15.453 8.7266-21.09l55.816-55.816c5.6367-5.6367 13.09-8.7266 21.09-8.7266s15.453 3.0898 20.91 8.5469c4.5469 4.5469 7.2734 10.184 8.1836 16v0.18359c0 0.18359 0.18359 0.36328 0.18359 0.54688 1.4531 8.9023-1.2734 18.355-8.1836 25.266zm257.27-136c43.637 0 82.91-24.363 102.73-62.363 25.453 14.91 41.816 42.363 41.816 72.547 0 46.363-37.637 84-84 84l-280.91-0.003907c-1.2734-3.4531-2.7266-6.7266-4.7266-9.8164l84.363-84.363zm-414.18 94.363c-46.363 0-84-37.637-84-84 0-30.184 16.363-57.637 41.816-72.547 19.637 37.816 59.09 62.363 102.73 62.363h168l-62 62c-23.273-12.91-54.727-9.8164-74 9.4531l-22.727 22.727z"/>
  <path d="m36.363 584.73h141.45c8.7266 0 16-7.0898 16-16 0-8.9102-7.0898-16-16-16h-106.73l88.363-102.91c4-4.7266 4.9102-11.273 2.3633-17.09-2.5469-5.6367-8.1836-9.2734-14.363-9.2734h-46.727l88.363-102.91c4-4.7266 4.9102-11.273 2.3633-17.09-2.5469-5.6367-8.1836-9.2734-14.363-9.2734l-46.727 0.003906 88.363-102.91c4-4.7266 4.9102-11.273 2.3633-17.09-2.543-5.0938-8.1797-8.7305-14.363-8.7305h-46.727l83.637-97.453 83.637 97.453h-46.727c-6.1836 0-11.816 3.6367-14.363 9.2734-2.5469 5.6367-1.6367 12.363 2.3633 17.09l80 93.09c5.8164 6.7266 15.816 7.4531 22.363 1.6367 6.7266-5.6367 7.4531-15.816 1.6367-22.363l-57.273-66.727h46.727c6.1836 0 11.816-3.6367 14.363-9.2734 2.5469-5.6367 1.6367-12.363-2.3633-17.09l-118.36-137.64c-6-7.0898-18-7.0898-24.184 0l-118.18 137.46c-4 4.7266-4.9102 11.453-2.3633 17.09s8.1836 9.2734 14.363 9.2734h46.727l-88.363 102.91c-4 4.7266-4.9102 11.273-2.3633 17.09 2.5469 5.6367 8.1836 9.2734 14.363 9.2734h46.727l-88.363 102.91c-4 4.7266-4.9102 11.273-2.3633 17.09 2.5469 5.6367 8.1836 9.2734 14.363 9.2734l46.727-0.003906-88.363 102.91c-4 4.7266-4.9102 11.273-2.3633 17.09 2.5469 5.2734 8.1836 8.9102 14.363 8.9102z"/>
 </g>
</svg>
