<?xml version="1.0" encoding="UTF-8"?>
<svg width="1200pt" height="1200pt" version="1.1" viewBox="0 0 1200 1200" xmlns="http://www.w3.org/2000/svg">
 <path d="m578.62 235.73-461.74 769.57-25.125-50.211c-4.6133-9.2617-15.898-13.012-25.164-8.3984-9.2266 4.6484-13.012 15.898-8.3633 25.164l40.387 80.773 0.375 0.71094c1.5 2.7383 3.6367 4.9492 6.0742 6.5625l0.14844 0.074218c2.625 1.6875 5.6641 2.7383 8.8516 2.9609h0.1875c0.44922 0.039062 0.89844 0.039062 1.3867 0.039062h968.7c0.48828 0 0.9375 0 1.3867-0.039062h0.1875c3.1875-0.22656 6.2266-1.2734 8.8516-2.9609l0.14844-0.074218c2.4375-1.6133 4.5742-3.8242 6.0742-6.5625l0.30078-0.52344c0.039062-0.074218 0.039062-0.14844 0.074219-0.1875l40.387-80.773c4.6484-9.2617 0.86328-20.512-8.3633-25.164-9.2617-4.6133-20.551-0.86328-25.164 8.3984l-25.125 50.211-461.74-769.57 35.773-71.586c4.6484-9.2266 0.86328-20.512-8.3633-25.125-9.2617-4.6484-20.551-0.89844-25.164 8.3633l-23.625 47.25-23.625-47.25c-4.6133-9.2617-15.898-13.012-25.164-8.3633-9.2266 4.6133-13.012 15.898-8.3633 25.125l35.773 71.586zm138.71 789.75h-234.41c55.648-97.051 91.387-194.1 117.34-291.19 26.512 97.086 62.211 194.14 117.04 291.19z" fill="#c362dd" fill-rule="evenodd"/>
</svg>
