<?xml version="1.0" encoding="UTF-8"?>
<svg width="1200pt" height="1200pt" version="1.1" viewBox="0 0 1200 1200" xmlns="http://www.w3.org/2000/svg">
 <path d="m12.516 808.87s-54.758 201.82 65.711 295.7c118.91 93.871 126.73 37.551 126.73 37.551s627.38-367.67 729.07-436.51c103.26-68.84 178.36-170.54 186.18-198.7 46.938-178.36 107.95-197.13 65.711-425.55l-7.8242-40.68-25.031 32.855s-25.031 34.418-54.758 56.324c-20.34 14.082-84.484 43.809-151.76 73.535-40.68 18.773-82.922 39.113-114.21 54.758-109.52 54.758-200.26 112.65-300.39 176.79-84.484 53.195-167.41 111.08-219.04 154.89-122.04 104.82-259.71 106.39-261.28 106.39h-12.516c-6.2578 15.645-12.516 28.16 3.1289 42.242zm672.75-423.99 381.75 40.68c28.16-25.031 46.938-46.938 59.453-59.453 46.938-51.629 35.984-170.54 28.16-236.25-9.3867 10.953-21.902 21.902-34.418 31.289-21.902 15.645-89.18 46.938-158.02 78.227-40.68 18.773-81.355 37.551-112.65 53.195-29.727 14.082-92.309 48.5-164.28 92.309zm319.16 95.438-403.65-43.809c-17.211 10.953-32.855 20.34-48.5 31.289-40.68 25.031-81.355 53.195-118.91 78.227l400.52 43.809c68.84-35.984 125.16-73.535 170.54-109.52zm-269.1 153.32-366.1-39.113c-12.516 9.3867-21.902 17.211-31.289 25.031-65.711 56.324-137.68 86.051-192.44 100.13 247.2 14.082 441.2-26.598 589.83-86.051z" fill="#ff814a" fill-rule="evenodd"/>
</svg>
